<svg width="1600" height="1200" viewBox="0 0 1600 1200" fill="none" xmlns="http://www.w3.org/2000/svg">
  <rect width="1600" height="1200" fill="#211922"/>
  <circle cx="1250" cy="220" r="330" fill="#E60023" fill-opacity="0.22"/>
  <circle cx="1320" cy="930" r="300" fill="#F7DFE5" fill-opacity="0.18"/>
  <circle cx="240" cy="180" r="260" fill="#ECE8DF" fill-opacity="0.15"/>
  <path d="M221 772C406 616 621 560 794 568C966 576 1105 638 1337 800" stroke="#F6F1EE" stroke-opacity="0.55" stroke-width="18" stroke-linecap="round"/>
  <path d="M296 862C480 733 642 688 807 693C970 699 1126 758 1267 861" stroke="#F7DFE5" stroke-opacity="0.42" stroke-width="10" stroke-linecap="round"/>
  <path d="M570 461C660 424 749 407 824 409C919 412 1001 442 1088 500" stroke="#ECE8DF" stroke-opacity="0.5" stroke-width="16" stroke-linecap="round"/>
  <path d="M629 516C706 489 778 476 840 478C916 480 987 504 1063 548" stroke="#E5E5E0" stroke-opacity="0.35" stroke-width="8" stroke-linecap="round"/>
  <path d="M418 307C482 286 548 276 604 280" stroke="#E60023" stroke-opacity="0.35" stroke-width="6" stroke-linecap="round"/>
  <path d="M962 314C1030 314 1087 327 1150 355" stroke="#E60023" stroke-opacity="0.28" stroke-width="6" stroke-linecap="round"/>
</svg>
